<svg width="1801" height="1401" viewBox="0 0 1801 1401" xmlns="http://www.w3.org/2000/svg"><title>bg_editor_1</title><defs><linearGradient x1="50%" y1="0%" x2="50%" y2="100%" id="a"><stop stop-opacity="0" offset="0%"/><stop stop-opacity=".1" offset="100%"/></linearGradient></defs><g fill="none" fill-rule="evenodd"><path d="M151 .08v805.434L0 1011.967v388.113h400.558L651 805.514V.08H151z" fill="#44B5DF"/><path d="M1151 .08v805.434l249.558 594.566H1801v-388.113l-150-206.453V.08h-500z" fill="#5CC081"/><path d="M651 .08v805.434L400.56 1400.08h1000L1151 805.514V.08H651z" fill="#E078A4"/><path d="M.558.002L.404 1011.966l150.154-206.452V.002h-150zm1650 0v805.512l150.154 206.452L1800.558.002h-150z" fill="#FFF"/><path d="M.558 805.514h1800V479.15H.558v326.364z" fill="url(#a)"/></g></svg>